<svg width="21" height="18" viewBox="0 0 21 18" fill="none" xmlns="http://www.w3.org/2000/svg">
<path d="M10.1785 16.2963L10.179 16.2967C10.2601 16.3624 10.3734 16.4052 10.4998 16.4052C10.6262 16.4052 10.7398 16.3623 10.8208 16.2968L10.8209 16.2966C11.6558 15.6208 12.4597 14.9866 13.1657 14.4298L10.1785 16.2963ZM10.1785 16.2963C9.34668 15.623 8.54514 14.9906 7.84115 14.4354L7.84053 14.4349L7.84056 14.4348M10.1785 16.2963L7.84056 14.4348M18.5996 2.44141C17.6863 1.52451 16.4237 1.00861 15.027 1.00861C13.9978 1.00861 13.0661 1.30702 12.2399 1.8985L12.2398 1.89853C11.8195 2.19944 11.4341 2.57089 11.0908 3.01024L10.4997 3.76648L9.90881 3.01012C9.5657 2.57093 9.18025 2.19946 8.75989 1.89846C7.9337 1.30701 7.00204 1.00861 5.97286 1.00861C4.57602 1.00861 3.31356 1.52451 2.40026 2.44141L18.5996 2.44141ZM18.5996 2.44141C19.5016 3.34714 20.0085 4.59317 20.0085 5.96618C20.0085 7.33849 19.4674 8.63813 18.1649 10.0928L18.1649 10.0929C16.9758 11.421 15.2504 12.7853 13.1658 14.4298L18.5996 2.44141ZM7.84056 14.4348L7.83458 14.4301M7.84056 14.4348L7.83458 14.4301M7.83458 14.4301C5.74964 12.7855 4.02401 11.4211 2.83491 10.093M7.83458 14.4301L2.83491 10.093M2.83491 10.093C1.53234 8.63807 0.991211 7.33845 0.991211 5.96618M2.83491 10.093L2.27615 10.5933L0.991211 5.96618M0.991211 5.96618C0.991211 4.59323 1.49814 3.34721 2.40023 2.44144L0.991211 5.96618Z" stroke="#888888" stroke-width="1.5"/>
</svg>
